<?xml version="1.0" encoding="iso-8859-1"?>
<!-- Generator: Adobe Illustrator 19.0.0, SVG Export Plug-In . SVG Version: 6.00 Build 0)  -->
<svg version="1.1" id="Capa_1" xmlns="http://www.w3.org/2000/svg" xmlns:xlink="http://www.w3.org/1999/xlink" x="0px" y="0px"
	 viewBox="0 0 384.008 384.008" style="enable-background:new 0 0 384.008 384.008;" xml:space="preserve">
<g>
	<g>
		<path d="M383.984,326.06c-1.04-36.296-33.808-72.456-47.776-86.256c5.4-10.128,9.808-20.784,12.952-31.856
			c1.488-5.224,2.712-10.536,3.664-15.912c0.008-0.024,0-0.056,0.008-0.08c1.672-9.4,2.52-19.008,2.52-28.576
			c0-90.088-73.296-163.376-163.4-163.376C101.896,0.004,28.64,73.292,28.64,163.38c0,9.792,0.832,19.28,2.432,28.08
			c0.928,5.36,2.128,10.656,3.592,15.864c3.168,11.304,7.664,22.16,13.152,32.488c-14.44,14.304-46.76,50.2-47.792,86.248
			c-0.44,15.824,5.256,30.144,16.52,41.44c10.848,10.824,24.52,16.504,39.648,16.504c0.584,0,1.168-0.008,1.76-0.024
			c42.976-1.24,85.848-47.088,91.96-53.864c2.288-2.32,4.344-4.816,6.248-7.4c11.648,2.6,23.632,3.96,35.792,3.96
			c12.192,0,24.2-1.344,35.872-3.952c1.896,2.56,3.952,5.048,6.272,7.392c6.12,6.792,48.976,52.616,91.944,53.864
			c0.592,0.016,1.176,0.024,1.768,0.024c15.128,0,28.808-5.688,39.648-16.504c0.008-0.008,0.024-0.016,0.032-0.024
			C378.728,356.212,384.432,341.892,383.984,326.06z M56.992,351.988c-6.984,0.248-12.76-2.08-17.824-7.136
			c-5.08-5.088-7.352-10.76-7.16-17.856c0.568-20.104,19.888-44.992,33.872-59.856c2.568,3.12,5.288,6.096,8.072,9
			c0.216,0.224,0.392,0.472,0.608,0.696c0.272,0.288,0.592,0.536,0.872,0.816c3.344,3.408,6.792,6.688,10.408,9.776
			c0.616,0.528,1.264,1.024,1.888,1.544c3.472,2.88,7.04,5.64,10.736,8.224c0.312,0.216,0.584,0.472,0.896,0.688
			c0.008,0.008,0.024,0.008,0.04,0.016c0.272,0.192,0.568,0.352,0.84,0.536c2.648,1.8,5.36,3.52,8.112,5.16
			c1.368,0.816,2.752,1.584,4.136,2.36c1.76,0.984,3.536,1.928,5.328,2.848c1.544,0.792,3.088,1.576,4.656,2.32
			c0.32,0.152,0.624,0.32,0.944,0.472C110.512,325.02,80.496,351.332,56.992,351.988z M66.16,200.724
			c0.592-0.024,1.2-0.04,1.792-0.04c23.32-0.008,42.272,18.944,42.272,42.24c0,6.832-1.6,13.368-4.616,19.224
			c-1.984-1.736-3.888-3.56-5.76-5.408c-0.912-0.904-1.848-1.776-2.736-2.704c-0.216-0.232-0.432-0.472-0.648-0.696
			c-2.208-2.352-4.328-4.776-6.352-7.28c-0.624-0.768-1.248-1.528-1.848-2.312c-4.808-6.208-9.056-12.832-12.696-19.792
			c-0.424-0.808-0.824-1.632-1.232-2.448c-1.504-3.04-2.904-6.136-4.176-9.28c-0.224-0.552-0.48-1.096-0.696-1.656
			C68.216,207.348,67.152,204.044,66.16,200.724z M243.088,284.292c-0.68,0.288-1.344,0.608-2.032,0.88
			c-3.4,1.368-6.856,2.616-10.384,3.696c-0.08,0.024-0.144,0.072-0.216,0.096c-12.344,3.768-25.288,5.712-38.496,5.712
			c-13.176,0-26.08-1.96-38.416-5.72c-0.064-0.024-0.128-0.064-0.192-0.08c-3.672-1.128-7.28-2.416-10.816-3.848
			c-0.096-0.04-0.192-0.088-0.288-0.128c-3.216-1.32-6.368-2.784-9.464-4.344c-0.224-0.112-0.432-0.24-0.656-0.352
			c6.552-11.168,10.096-23.904,10.096-37.272c0-40.944-33.312-74.248-74.256-74.248c-2.376,0-4.744,0.12-7.08,0.344
			c-0.08-1.88-0.24-3.72-0.24-5.64c0-72.448,58.904-131.384,131.312-131.384c72.456,0,131.4,58.936,131.4,131.376
			c0,1.96-0.176,3.92-0.264,5.88c-2.912-0.352-5.832-0.584-8.736-0.584c-40.936,0-74.24,33.304-74.24,74.248
			c0,13.424,3.768,26.504,10.552,37.88C248.184,282.052,245.648,283.204,243.088,284.292z M317.84,200.828
			c-1.016,3.4-2.136,6.76-3.424,10.056c-0.32,0.824-0.688,1.624-1.032,2.44c-1.192,2.872-2.48,5.696-3.872,8.472
			c-0.488,0.968-0.968,1.936-1.472,2.896c-1.808,3.408-3.72,6.76-5.824,10c-0.024,0.032-0.04,0.064-0.056,0.096
			c-2.128,3.272-4.448,6.408-6.856,9.488c-0.664,0.848-1.36,1.68-2.048,2.512c-1.976,2.392-4.032,4.72-6.176,6.984
			c-0.424,0.448-0.84,0.912-1.272,1.352c-0.424,0.432-0.856,0.84-1.28,1.264c-2.296,2.288-4.672,4.488-7.136,6.608
			c-0.032,0.024-0.056,0.048-0.088,0.072c-3.36-6.128-5.184-13.064-5.184-20.144c0-23.296,18.952-42.248,42.24-42.248
			C315.512,200.676,316.672,200.732,317.84,200.828z M344.848,344.852c-5.088,5.072-10.84,7.384-17.84,7.136
			c-23.504-0.656-53.52-26.976-66.424-40.384c0.232-0.104,0.448-0.232,0.68-0.336c1.32-0.616,2.616-1.296,3.92-1.952
			c2.056-1.032,4.088-2.096,6.096-3.216c1.152-0.64,2.296-1.288,3.432-1.96c2.744-1.616,5.448-3.304,8.096-5.08
			c0.256-0.168,0.52-0.312,0.776-0.488c0.048-0.032,0.088-0.072,0.136-0.104c4.304-2.92,8.44-6.08,12.448-9.408
			c0.176-0.144,0.368-0.264,0.536-0.408c0.104-0.088,0.2-0.2,0.312-0.288c4.008-3.368,7.84-6.936,11.52-10.672
			c0.104-0.112,0.216-0.216,0.32-0.328c3.208-3.288,6.336-6.664,9.264-10.224c13.776,14.744,33.304,39.864,33.872,59.832
			C352.192,334.076,349.928,339.764,344.848,344.852z"/>
	</g>
</g>
<g>
	<g>
		<path d="M166.552,109.196c0.016-7.36,0.04-16.512-6.768-23.328c-7.704-7.72-22.072-7.72-29.776,0
			c-6.808,6.824-6.792,15.992-6.776,23.368v37.832c-0.016,7.376-0.032,16.544,6.776,23.368c3.856,3.848,9.144,5.976,14.888,5.976
			c5.752,0,11.04-2.128,14.888-5.984c6.808-6.816,6.784-15.968,6.768-23.328V109.196z"/>
	</g>
</g>
<g>
	<g>
		<path d="M260.776,109.196c0.016-7.36,0.04-16.512-6.768-23.328c-7.704-7.712-22.08-7.72-29.768-0.008
			c-6.808,6.824-6.792,15.984-6.776,23.352v37.872c-0.016,7.368-0.032,16.528,6.776,23.352c3.848,3.848,9.136,5.976,14.88,5.976
			c5.752,0,11.04-2.128,14.888-5.984c6.808-6.816,6.784-15.968,6.768-23.328V109.196z"/>
	</g>
</g>
<g>
	<g>
		<path d="M227.896,193.652c-3.744-8-13.288-11.448-21.264-7.72c-15.464,7.216-27.016,1.192-27.856,0.736
			c-7.504-4.48-17.224-2.096-21.792,5.368c-4.632,7.52-2.288,17.384,5.24,22.008c5.736,3.528,16.248,7.384,29.208,7.384
			c8.72,0,18.536-1.744,28.744-6.512C228.184,211.172,231.64,201.66,227.896,193.652z"/>
	</g>
</g>
<g>
</g>
<g>
</g>
<g>
</g>
<g>
</g>
<g>
</g>
<g>
</g>
<g>
</g>
<g>
</g>
<g>
</g>
<g>
</g>
<g>
</g>
<g>
</g>
<g>
</g>
<g>
</g>
<g>
</g>
</svg>
