<?xml version="1.0" encoding="iso-8859-1"?>
<!-- Generator: Adobe Illustrator 19.0.0, SVG Export Plug-In . SVG Version: 6.00 Build 0)  -->
<svg version="1.1" id="Capa_1" xmlns="http://www.w3.org/2000/svg" xmlns:xlink="http://www.w3.org/1999/xlink" x="0px" y="0px"
	 viewBox="0 0 384 384" style="enable-background:new 0 0 384 384;" xml:space="preserve">
<g>
	<g>
		<path d="M328.4,0h-79.2H192c-8.832,0-16,7.168-16,16v54.336h-41.2H55.6c-30.656,0-55.6,24.92-55.6,55.552v190.16v12.392
			C0,359.08,24.944,384,55.6,384h79.2H192c8.832,0,16-7.168,16-16v-54.336h41.2h79.2c30.656,0,55.6-24.92,55.6-55.552v-13.184
			V55.568C384,24.92,359.056,0,328.4,0z M118.8,352H55.6c-11.784,0-21.576-8.664-23.32-19.952h86.52V352z M118.8,300.048H32v-174.16
			c0-12.984,10.584-23.552,23.6-23.552h63.2V300.048z M176,297.664V352h-25.2v-35.952V102.336H176V297.664z M233.2,244.92v36.744
			H208V86.336V32h25.2V244.92z M328.4,281.664h-63.2V260.92h86.632C350.44,272.584,340.464,281.664,328.4,281.664z M352,228.92
			L352,228.92h-86.8V32h63.2c13.008,0,23.6,10.568,23.6,23.56V228.92z"/>
	</g>
</g>
<g>
	<g>
		<circle cx="308.6" cy="165.624" r="24.16"/>
	</g>
</g>
<g>
	<g>
		<circle cx="75.4" cy="148.048" r="24.16"/>
	</g>
</g>
<g>
	<g>
		<path d="M91.712,211.168H91.4v-0.288c0-8.832-7.168-16-16-16c-8.832,0-16,7.168-16,16v0.288h-0.312c-8.832,0-16,7.168-16,16
			c0,8.832,7.168,16,16,16H59.4v0.296c0,8.832,7.168,16,16,16c8.832,0,16-7.168,16-16v-0.296h0.312c8.832,0,16-7.168,16-16
			C107.712,218.336,100.544,211.168,91.712,211.168z"/>
	</g>
</g>
<g>
	<g>
		<path d="M324.912,69.904H324.6V69.6c0-8.832-7.168-16-16-16c-8.832,0-16,7.168-16,16v0.304h-0.312c-8.832,0-16,7.168-16,16
			c0,8.832,7.168,16,16,16h0.312v0.296c0,8.832,7.168,16,16,16c8.832,0,16-7.168,16-16v-0.296h0.312c8.832,0,16-7.168,16-16
			C340.912,77.072,333.744,69.904,324.912,69.904z"/>
	</g>
</g>
<g>
</g>
<g>
</g>
<g>
</g>
<g>
</g>
<g>
</g>
<g>
</g>
<g>
</g>
<g>
</g>
<g>
</g>
<g>
</g>
<g>
</g>
<g>
</g>
<g>
</g>
<g>
</g>
<g>
</g>
</svg>
