<?xml version="1.0" encoding="iso-8859-1"?>
<!-- Generator: Adobe Illustrator 19.0.0, SVG Export Plug-In . SVG Version: 6.00 Build 0)  -->
<svg version="1.1" id="Capa_1" xmlns="http://www.w3.org/2000/svg" xmlns:xlink="http://www.w3.org/1999/xlink" x="0px" y="0px"
	 viewBox="0 0 384 384" style="enable-background:new 0 0 384 384;" xml:space="preserve">
<g>
	<g>
		<path d="M368,184.968h-26.976h-71.056c-4.832,0-8.768-4.168-8.768-9.304c0-5.08,3.936-9.208,8.768-9.208h18.688
			c8.832,0,16-7.168,16-16c0-8.832-7.168-16-16-16h-18.688h-61.704c-4.832,0-8.768-4.168-8.768-9.304
			c0-5.136,3.936-9.312,8.768-9.312h102.52H368c8.832,0,16-7.168,16-16c0-8.832-7.168-16-16-16h-49.512
			C286.912,45.728,241.288,24,192.04,24C109.624,24,40.544,85.704,28.592,167.032H16c-8.832,0-16,7.168-16,16
			c0,8.832,7.168,16,16,16h26.976h71.056c4.832,0,8.768,4.168,8.768,9.304c0,5.08-3.936,9.208-8.768,9.208H95.344
			c-8.832,0-16,7.168-16,16c0,8.832,7.168,16,16,16h18.688h61.704c4.832,0,8.768,4.168,8.768,9.304s-3.928,9.296-8.768,9.296H73.304
			H16c-8.832,0-16,7.168-16,16c0,8.832,7.168,16,16,16h49.584C97.088,338.272,142.712,360,192.04,360
			c82.368,0,151.416-61.704,163.36-143.032H368c8.832,0,16-7.168,16-16C384,192.136,376.832,184.968,368,184.968z M192.04,328
			c-29.832,0-58-9.888-80.944-27.856h64.64c22.48,0,40.768-18.528,40.768-41.304s-18.288-41.296-40.768-41.296h-21.968
			c0.672-2.96,1.024-6.048,1.024-9.208c0-22.776-18.288-41.304-40.768-41.304H60.96C72.512,103.56,127.184,56,192.04,56
			c29.76,0,57.912,9.88,80.88,27.848h-64.664c-22.48,0-40.768,18.528-40.768,41.312c0,22.776,18.288,41.304,40.768,41.304h21.968
			c-0.672,2.96-1.024,6.048-1.024,9.208c0,22.776,18.288,41.304,40.768,41.304h53.072C311.496,280.44,256.856,328,192.04,328z"/>
	</g>
</g>
<g>
</g>
<g>
</g>
<g>
</g>
<g>
</g>
<g>
</g>
<g>
</g>
<g>
</g>
<g>
</g>
<g>
</g>
<g>
</g>
<g>
</g>
<g>
</g>
<g>
</g>
<g>
</g>
<g>
</g>
</svg>
