<?xml version="1.0" encoding="iso-8859-1"?>
<!-- Generator: Adobe Illustrator 19.0.0, SVG Export Plug-In . SVG Version: 6.00 Build 0)  -->
<svg version="1.1" id="Capa_1" xmlns="http://www.w3.org/2000/svg" xmlns:xlink="http://www.w3.org/1999/xlink" x="0px" y="0px"
	 viewBox="0 0 384.016 384.016" style="enable-background:new 0 0 384.016 384.016;" xml:space="preserve">
<g>
	<g>
		<path d="M191.952,0.012c-12.904,0-25.904,1.296-38.632,3.856c-0.016,0-0.032,0.008-0.048,0.016c-0.008,0-0.008,0-0.016,0
			c-20.464,4.2-40,11.688-58.048,22.256c-0.008,0-0.008,0-0.016,0.008C36.48,60.444,0,123.988,0,191.98
			c0,6.744,0.32,13.048,0.976,19.272c0,0.008,0,0.024,0,0.032c0,0.016,0.008,0.024,0.008,0.04c0,0.024,0,0.048,0.008,0.072
			s0.008,0.048,0.016,0.072c1.968,19.768,7.088,39.24,15.232,57.864c0,0.008,0.008,0.016,0.016,0.024c0,0.008,0,0.008,0.008,0.016
			c16.168,36.72,44.2,68.144,78.92,88.488c0.008,0.008,0.024,0.008,0.04,0.016c18.096,10.592,37.632,18.08,58.056,22.256
			c0.008,0,0.016,0,0.016,0c0.008,0,0.016,0,0.024,0.008c12.688,2.568,25.696,3.864,38.648,3.864
			c76.096,0,145.056-45,175.696-114.64c0.016-0.032,0.016-0.072,0.032-0.104c8.168-18.24,13.336-37.744,15.344-57.968
			c0-0.024,0-0.056,0-0.08c0.64-6.096,0.976-12.56,0.976-19.24C384,86.132,297.84,0.012,191.952,0.012z M32,191.98
			c0-46.688,20.632-90.848,55.264-120.936v122.672H32.008C32,193.148,32,192.564,32,191.98z M87.264,312.924
			c-11.376-9.896-21.36-21.384-29.568-34h29.568V312.924z M191.952,352.012c-6.504,0-13.008-0.392-19.48-1.168v-71.912h153.792
			C297.128,323.996,246.76,352.012,191.952,352.012z M342.272,246.924h-185.8c-8.832,0-16,7.168-16,16v80.656
			c-7.264-2.48-14.344-5.48-21.208-8.992v-71.664c0-8.832-7.168-16-16-16H41.712c-2.544-6.968-4.592-14.056-6.136-21.208h67.688
			c8.832,0,16-7.168,16-16V49.436c6.856-3.504,13.944-6.504,21.208-8.984v169.264c0,8.832,7.168,16,16,16H348.44
			C346.88,232.956,344.824,240.036,342.272,246.924z M351.992,193.716h-179.52V33.18c6.48-0.784,12.992-1.168,19.48-1.168
			C280.2,32.012,352,103.772,352,191.98C352,192.556,352,193.14,351.992,193.716z"/>
	</g>
</g>
<g>
</g>
<g>
</g>
<g>
</g>
<g>
</g>
<g>
</g>
<g>
</g>
<g>
</g>
<g>
</g>
<g>
</g>
<g>
</g>
<g>
</g>
<g>
</g>
<g>
</g>
<g>
</g>
<g>
</g>
</svg>
