<?xml version="1.0" encoding="iso-8859-1"?>
<!-- Generator: Adobe Illustrator 19.0.0, SVG Export Plug-In . SVG Version: 6.00 Build 0)  -->
<svg version="1.1" id="Capa_1" xmlns="http://www.w3.org/2000/svg" xmlns:xlink="http://www.w3.org/1999/xlink" x="0px" y="0px"
	 viewBox="0 0 384.008 384.008" style="enable-background:new 0 0 384.008 384.008;" xml:space="preserve">
<g>
	<g>
		<path d="M271.592,141.436c-16.256,0-32.152,3.552-46.664,10.152v-39.144c0-62-50.432-112.44-112.424-112.44
			C50.472,0.004,0,50.444,0,112.444v96.448c0.008,8.832,7.176,16,16.008,16c6.832,0,9.456,1.92,14.672,5.752
			c6.856,5.032,16.248,11.928,33.496,11.928c17.296,0,26.712-6.896,33.584-11.936c5.216-3.824,7.832-5.744,14.664-5.744
			c6.832,0,9.464,1.92,14.688,5.752c6.728,4.936,15.952,11.616,32.592,11.88c-0.376,3.768-0.616,7.552-0.616,11.36v96.44
			c0,8.832,7.168,16,16,16c6.832,0,9.448,1.92,14.664,5.752c6.856,5.032,16.248,11.928,33.504,11.928
			c17.288,0,26.704-6.896,33.568-11.928c5.224-3.832,7.848-5.752,14.688-5.752c6.832,0,9.448,1.92,14.664,5.744
			c6.872,5.032,16.288,11.936,33.584,11.936s26.712-6.896,33.584-11.936c5.216-3.824,7.832-5.744,14.664-5.744
			c8.832,0,16-7.168,16-16v-96.44C384.008,191.884,333.576,141.436,271.592,141.436z M187.168,179.7
			c-2.424,2.752-4.704,5.608-6.848,8.576c-0.392,0.544-0.84,1.048-1.224,1.6c-2.456,3.528-4.664,7.208-6.704,10.984
			c-0.56,1.048-1.048,2.128-1.576,3.184c-0.872,1.752-1.824,3.48-2.608,5.272c-1.848,0.76-4.168,1.248-7.536,1.248
			c-6.824,0-9.44-1.92-14.656-5.744c-6.872-5.04-16.296-11.936-33.6-11.936c-17.296,0-26.712,6.896-33.584,11.936
			c-5.216,3.824-7.832,5.744-14.664,5.744c-6.76,0-9.368-1.912-14.552-5.72c-4.376-3.216-9.792-7.184-17.608-9.648v-82.752
			c0-44.352,36.112-80.44,80.504-80.44c44.344,0,80.424,36.088,80.424,80.44v61.04c-1.056,1.032-1.984,2.168-3,3.232
			C189,177.7,188.072,178.676,187.168,179.7z M352.008,336.652c-7.808,2.456-13.208,6.416-17.584,9.616
			c-5.216,3.824-7.832,5.744-14.664,5.744c-6.832,0-9.448-1.92-14.664-5.744c-6.872-5.032-16.288-11.936-33.584-11.936
			c-17.304,0-26.728,6.896-33.6,11.936c-5.216,3.824-7.832,5.744-14.656,5.744c-6.768,0-9.376-1.912-14.56-5.728
			c-4.376-3.208-9.784-7.176-17.6-9.64v-82.76c0-9.552,1.656-18.944,4.92-27.92c3.448-9.296,8.704-17.88,15.32-25.352
			c0.208-0.24,0.384-0.504,0.592-0.744c1.032-1.136,2.208-2.136,3.304-3.208c1.36-1.344,2.656-2.752,4.12-4
			c14.44-12.392,32.992-19.216,52.24-19.216c44.344,0,80.416,36.088,80.416,80.448V336.652z"/>
	</g>
</g>
<g>
	<g>
		<circle cx="236.192" cy="253.884" r="24.24"/>
	</g>
</g>
<g>
	<g>
		<circle cx="306.88" cy="253.884" r="24.24"/>
	</g>
</g>
<g>
	<g>
		<circle cx="77.12" cy="112.404" r="24.24"/>
	</g>
</g>
<g>
	<g>
		<circle cx="147.824" cy="112.404" r="24.24"/>
	</g>
</g>
<g>
</g>
<g>
</g>
<g>
</g>
<g>
</g>
<g>
</g>
<g>
</g>
<g>
</g>
<g>
</g>
<g>
</g>
<g>
</g>
<g>
</g>
<g>
</g>
<g>
</g>
<g>
</g>
<g>
</g>
</svg>
