<?xml version="1.0" encoding="iso-8859-1"?>
<!-- Generator: Adobe Illustrator 19.0.0, SVG Export Plug-In . SVG Version: 6.00 Build 0)  -->
<svg version="1.1" id="Capa_1" xmlns="http://www.w3.org/2000/svg" xmlns:xlink="http://www.w3.org/1999/xlink" x="0px" y="0px"
	 viewBox="0 0 384 384" style="enable-background:new 0 0 384 384;" xml:space="preserve">
<g>
	<g>
		<path d="M348.784,150.56c-7.336-53.072-27.68-78.792-39.104-89.376V16c0.008-8.832-7.16-16-15.992-16H90.328
			c-8.832,0-16,7.168-16,16v45.184c-11.424,10.584-31.776,36.304-39.12,89.384C28.728,152.616,24,158.6,24,165.752v52.8
			c0,7.152,4.728,13.144,11.208,15.184c7.336,52.904,27.664,78.52,39.112,89.072V368c0,8.832,7.168,16,16,16h203.36
			c8.832,0,16-7.168,16-16v-45.192c11.448-10.552,31.776-36.168,39.104-89.064c6.48-2.04,11.216-8.032,11.216-15.192v-52.8
			C360,158.592,355.264,152.608,348.784,150.56z M316.328,149.76h-34.232c-2.384-28.584-6.816-50.328-10.704-64.96h16.68
			C294.328,90.816,309.664,109.232,316.328,149.76z M106.328,32h171.36v20.8h-171.36V32z M249.968,149.76h-41.96V84.8h30.104
			C241.664,96.352,247.136,118.24,249.968,149.76z M176.008,84.8v64.96h-41.96c2.824-31.528,8.272-53.416,11.8-64.96H176.008z
			 M95.952,84.8h16.632c-3.864,14.632-8.28,36.368-10.664,64.96H67.688C74.352,109.176,89.704,90.8,95.952,84.8z M67.688,234.552
			h34.232c2.376,28.448,6.768,50.048,10.632,64.616H95.976C89.552,293.056,74.336,274.776,67.688,234.552z M277.688,352h-171.36
			v-20.8h171.36V352z M134.048,234.552h41.96v64.616h-30.184C142.288,287.688,136.864,265.952,134.048,234.552z M208.008,299.168
			v-64.616h41.96c-2.832,31.4-8.288,53.144-11.84,64.616H208.008z M288.096,299.168h-16.672c3.88-14.568,8.296-36.176,10.672-64.616
			h34.232C309.648,274.976,294.32,293.232,288.096,299.168z M328.008,202.552h-272v-20.8h272V202.552z"/>
	</g>
</g>
<g>
</g>
<g>
</g>
<g>
</g>
<g>
</g>
<g>
</g>
<g>
</g>
<g>
</g>
<g>
</g>
<g>
</g>
<g>
</g>
<g>
</g>
<g>
</g>
<g>
</g>
<g>
</g>
<g>
</g>
</svg>
