<?xml version="1.0" encoding="iso-8859-1"?>
<!-- Generator: Adobe Illustrator 19.0.0, SVG Export Plug-In . SVG Version: 6.00 Build 0)  -->
<svg version="1.1" id="Capa_1" xmlns="http://www.w3.org/2000/svg" xmlns:xlink="http://www.w3.org/1999/xlink" x="0px" y="0px"
	 viewBox="0 0 384.003 384.003" style="enable-background:new 0 0 384.003 384.003;" xml:space="preserve">
<g>
	<g>
		<path d="M341.53,0.987c-6.312-2.32-13.36-0.464-17.712,4.648c-15,17.624-42.672,43.112-58.384,46.568
			c-21.912-11.32-46.608-17.048-73.488-17.048c-26.808,0-51.464,5.728-73.376,17.04c-15.664-3.456-43.352-28.944-58.384-46.568
			c-4.352-5.104-11.44-6.96-17.712-4.632c-6.296,2.32-10.472,8.304-10.472,15.008v193.528c0,102.728,65.776,174.472,159.944,174.472
			c94.24,0,160.056-71.744,160.056-174.472V16.003C352.002,9.299,347.826,3.307,341.53,0.987z M191.946,352.003
			c-75.328,0-127.944-58.584-127.944-142.472V54.939c16.992,14.872,38.696,29.648,57.864,29.648c2.744,0,5.44-0.704,7.832-2.048
			c18.176-10.208,39.12-15.384,62.24-15.384c23.192,0,44.168,5.176,62.352,15.384c2.392,1.344,5.096,2.048,7.832,2.048
			c19.168,0,40.872-14.776,57.864-29.648v154.592h0.016C320.002,293.419,267.346,352.003,191.946,352.003z"/>
	</g>
</g>
<g>
	<g>
		<path d="M225.866,289.283c-6.192,0-11.648-3.032-14.856-7.624c13.32-9.416,21.32-26.2,23.24-30.592
			c3.528-8.08-0.16-17.48-8.232-21.024c-8.072-3.56-17.504,0.12-21.08,8.184c-3.384,7.656-9.544,16.056-12.92,17.776
			c-3.32-1.736-9.304-10.072-12.56-17.632c-3.464-8.096-12.824-11.872-20.96-8.44c-8.136,3.456-11.928,12.848-8.48,20.984
			c1.872,4.416,9.712,21.272,22.984,30.72c-3.208,4.6-8.672,7.64-14.88,7.64c-8.832,0-16,7.168-16,16c0,8.832,7.168,16,16,16
			c13.088,0,24.976-5.024,33.88-13.168c8.904,8.144,20.792,13.168,33.872,13.168c8.832,0,16-7.168,16-16
			C241.874,296.443,234.706,289.283,225.866,289.283z"/>
	</g>
</g>
<g>
	<g>
		<path d="M277.578,149.387c-28.808,0-52.24,23.08-52.24,51.448c0,8.832,7.168,16,16,16c8.832,0,16-7.168,16-16
			c0-10.72,9.08-19.448,20.24-19.448c8.832,0,16-7.168,16-16C293.578,156.555,286.418,149.387,277.578,149.387z"/>
	</g>
</g>
<g>
	<g>
		<path d="M106.426,149.387c-8.832,0-16,7.168-16,16c0,8.832,7.168,16,16,16c11.152,0,20.224,8.72,20.224,19.448
			c0,8.832,7.168,16,16,16c8.832,0,16-7.168,16-16C158.65,172.467,135.218,149.387,106.426,149.387z"/>
	</g>
</g>
<g>
	<g>
		<path d="M273.346,105.699h-27.792c-8.832,0-16,7.168-16,16c0,8.832,7.168,16,16,16h27.792c8.832,0,16-7.168,16-16
			C289.346,112.867,282.178,105.699,273.346,105.699z"/>
	</g>
</g>
<g>
	<g>
		<path d="M138.434,105.699h-27.8c-8.832,0-16,7.168-16,16c0,8.832,7.168,16,16,16h27.8c8.832,0,16-7.168,16-16
			C154.434,112.867,147.266,105.699,138.434,105.699z"/>
	</g>
</g>
<g>
</g>
<g>
</g>
<g>
</g>
<g>
</g>
<g>
</g>
<g>
</g>
<g>
</g>
<g>
</g>
<g>
</g>
<g>
</g>
<g>
</g>
<g>
</g>
<g>
</g>
<g>
</g>
<g>
</g>
</svg>
