<?xml version="1.0" encoding="iso-8859-1"?>
<!-- Generator: Adobe Illustrator 19.0.0, SVG Export Plug-In . SVG Version: 6.00 Build 0)  -->
<svg version="1.1" id="Capa_1" xmlns="http://www.w3.org/2000/svg" xmlns:xlink="http://www.w3.org/1999/xlink" x="0px" y="0px"
	 viewBox="0 0 384 384" style="enable-background:new 0 0 384 384;" xml:space="preserve">
<g>
	<g>
		<path d="M286.6,0H97.408C97.4,0,97.4,0,97.392,0C74.568,0,56,18.84,56,42v326c0,8.832,7.168,16,16,16h180
			c41.904,0,76-34.736,76-77.432V42C328,18.84,309.432,0,286.6,0z M138.784,32h106.432v19.992H138.784V32z M88,42
			c0-5.512,4.208-10,9.392-10c0.008,0,0.008,0,0.016,0h9.376v19.992H88V42z M296,306.568C296,331.624,276.256,352,252,352H88V83.992
			h208V306.568z M296,51.992h-18.784V32h9.384c5.184,0,9.4,4.488,9.4,10V51.992z"/>
	</g>
</g>
<g>
	<g>
		<path d="M261.216,105.144H122.784c-8.832,0-16,7.168-16,16v106.288c0,8.832,7.168,16,16,16H231.52c0.008,0,0.008,0,0.016,0
			c25.184-0.016,45.68-20.832,45.68-46.424v-75.864C277.216,112.312,270.048,105.144,261.216,105.144z M245.216,197.008
			c0,7.952-6.152,14.424-13.712,14.424h-92.72v-74.288h106.432V197.008z"/>
	</g>
</g>
<g>
	<g>
		<path d="M157.392,282.656h-1.304v-1.72c0-8.832-7.168-16-16-16c-8.832,0-16,7.168-16,16v1.72h-1.304c-8.832,0-16,7.168-16,16
			c0,8.832,7.168,16,16,16h1.304v1.72c0,8.832,7.168,16,16,16c8.832,0,16-7.168,16-16v-1.72h1.304c8.832,0,16-7.168,16-16
			C173.392,289.824,166.224,282.656,157.392,282.656z"/>
	</g>
</g>
<g>
	<g>
		<ellipse cx="261.216" cy="280.96" rx="18.744" ry="18.816"/>
	</g>
</g>
<g>
	<g>
		<ellipse cx="226.64" cy="316.376" rx="18.744" ry="18.816"/>
	</g>
</g>
<g>
</g>
<g>
</g>
<g>
</g>
<g>
</g>
<g>
</g>
<g>
</g>
<g>
</g>
<g>
</g>
<g>
</g>
<g>
</g>
<g>
</g>
<g>
</g>
<g>
</g>
<g>
</g>
<g>
</g>
</svg>
