<?xml version="1.0" encoding="iso-8859-1"?>
<!-- Generator: Adobe Illustrator 19.0.0, SVG Export Plug-In . SVG Version: 6.00 Build 0)  -->
<svg version="1.1" id="Capa_1" xmlns="http://www.w3.org/2000/svg" xmlns:xlink="http://www.w3.org/1999/xlink" x="0px" y="0px"
	 viewBox="0 0 384.01 384.01" style="enable-background:new 0 0 384.01 384.01;" xml:space="preserve">
<g>
	<g>
		<path d="M384.01,72.194l-0.272-55.984c-0.056-8.768-7.152-15.872-15.92-15.92l-55.992-0.288c-3.928-0.056-8.376,1.672-11.4,4.688
			l-158.24,158.2l-2.76-2.768c-21.512-21.504-56.528-21.504-78.08,0.016c-21.504,21.552-21.504,56.576,0.016,78.064l9.824,9.824
			L4.69,314.482c-3.784,3.792-5.432,9.208-4.376,14.464l7.04,35.168c1.264,6.328,6.216,11.28,12.544,12.544l35.176,7.04
			c1.048,0.208,2.096,0.312,3.144,0.312c4.2,0,8.28-1.656,11.312-4.688l66.488-66.456l9.752,9.752
			c10.8,10.792,24.968,16.176,39.136,16.176c14.136,0,28.256-5.368,39-16.12c10.432-10.416,16.168-24.264,16.168-39
			c0-14.784-5.776-28.68-16.232-39.128l-2.752-2.752L379.322,83.586C382.346,80.57,384.034,76.466,384.01,72.194z M52.962,350.634
			l-16.328-3.264l-3.264-16.32l60.432-60.392l19.584,19.584L52.962,350.634z M201.29,300.026c-0.008,0-0.008,0.008-0.016,0.008
			c-9.04,9.056-23.8,9.024-32.88-0.064l-84.416-84.408c-9.04-9.032-9.032-23.76,0-32.808c4.528-4.52,10.48-6.784,16.424-6.784
			c5.936,0,11.872,2.256,16.392,6.768l2.76,2.768l-2.752,2.76c-3,3-4.688,7.072-4.688,11.312c0,4.24,1.688,8.312,4.688,11.312
			l56.28,56.272c3.128,3.128,7.216,4.688,11.312,4.688c4.096,0,8.184-1.56,11.312-4.688l2.752-2.752l2.76,2.76
			c4.416,4.416,6.848,10.272,6.848,16.496C208.066,289.85,205.658,295.658,201.29,300.026z M187.146,230.482l-2.752,2.752
			l-33.656-33.648L318.33,32.042l33.48,0.176l0.168,33.472L187.146,230.482z"/>
	</g>
</g>
<g>
</g>
<g>
</g>
<g>
</g>
<g>
</g>
<g>
</g>
<g>
</g>
<g>
</g>
<g>
</g>
<g>
</g>
<g>
</g>
<g>
</g>
<g>
</g>
<g>
</g>
<g>
</g>
<g>
</g>
</svg>
