<?xml version="1.0" encoding="iso-8859-1"?>
<!-- Generator: Adobe Illustrator 19.0.0, SVG Export Plug-In . SVG Version: 6.00 Build 0)  -->
<svg version="1.1" id="Capa_1" xmlns="http://www.w3.org/2000/svg" xmlns:xlink="http://www.w3.org/1999/xlink" x="0px" y="0px"
	 viewBox="0 0 384 384" style="enable-background:new 0 0 384 384;" xml:space="preserve">
<g>
	<g>
		<path d="M368,0H16C7.168,0,0,7.168,0,16v176v88.832V368c0,8.832,7.168,16,16,16h352c8.832,0,16-7.168,16-16V192v-88.832V16
			C384,7.168,376.832,0,368,0z M32,32h144v55.168H32V32z M255.944,119.168V176H128.056v-56.832H255.944z M32,119.168h64.056V176H32
			V119.168z M32,208h144v56.832H32V208z M96.056,352H32v-55.168h64.056V352z M255.944,352H128.056v-55.168h127.888V352z M352,352
			h-64.056v-55.168H352V352z M352,264.832H208V208h144V264.832z M352,176h-64.056v-56.832H352V176z M352,87.168H208V32h144V87.168z"
			/>
	</g>
</g>
<g>
</g>
<g>
</g>
<g>
</g>
<g>
</g>
<g>
</g>
<g>
</g>
<g>
</g>
<g>
</g>
<g>
</g>
<g>
</g>
<g>
</g>
<g>
</g>
<g>
</g>
<g>
</g>
<g>
</g>
</svg>
