<?xml version="1.0" encoding="iso-8859-1"?>
<!-- Generator: Adobe Illustrator 19.0.0, SVG Export Plug-In . SVG Version: 6.00 Build 0)  -->
<svg version="1.1" id="Capa_1" xmlns="http://www.w3.org/2000/svg" xmlns:xlink="http://www.w3.org/1999/xlink" x="0px" y="0px"
	 viewBox="0 0 384.114 384.114" style="enable-background:new 0 0 384.114 384.114;" xml:space="preserve">
<g>
	<g>
		<path d="M379.424,114.05c-1.416-5.872-6.016-10.44-11.904-11.824c-3.328-0.784-77.12-17.368-151.432,18.488
			c-26.976-77.056-90.872-116.624-93.8-118.4c-5.104-3.096-11.496-3.072-16.576,0C101.4,4.93,0,67.778,0,190.058
			C0,312.25,101.4,375.09,105.72,377.706c1.736,1.056,3.624,1.608,5.544,1.944c3.464,0.776,21.208,4.464,46.784,4.464
			c43.072,0,107.792-10.56,161.528-63.552C407.184,234.17,380.6,118.914,379.424,114.05z M114.28,106.114c-8.832,0-16,7.168-16,16
			v32.168l-14.184-13.72c-6.368-6.144-16.504-5.976-22.624,0.384c-6.152,6.352-5.976,16.48,0.376,22.624l36.44,35.232v32.632
			L85.024,216.25c-5.816-6.656-15.912-7.336-22.568-1.52c-6.656,5.816-7.336,15.92-1.52,22.576l36.728,42.048
			c-0.032,0.176-0.064,0.352-0.088,0.528c-0.136,0.816-0.288,1.64-0.416,2.448c-0.472,3.024-0.888,6-1.232,8.928
			c-0.088,0.72-0.152,1.424-0.224,2.136c-0.248,2.272-0.472,4.52-0.656,6.728c-0.08,0.944-0.152,1.88-0.216,2.816
			c-0.152,2.136-0.272,4.224-0.368,6.288c-0.032,0.696-0.08,1.4-0.104,2.08c-0.104,2.64-0.16,5.208-0.176,7.712
			c-0.008,0.728,0,1.416,0,2.128c0,1.848,0.016,3.648,0.056,5.416c0.008,0.4,0,0.832,0.016,1.232
			C67.728,302.434,32,256.042,32,190.058c0-84.944,59.752-137.816,82.048-154.584c17.288,12.896,56.84,47.2,73.84,101.528
			c-0.04,0.024-0.072,0.056-0.112,0.08c-4.616,3.168-9.056,6.576-13.416,10.096c-1.088,0.88-2.168,1.776-3.24,2.672
			c-4.304,3.624-8.528,7.352-12.536,11.312c-3.192,3.144-6.184,6.336-9.072,9.552c-0.856,0.952-1.68,1.912-2.512,2.872
			c-2.088,2.408-4.104,4.832-6.04,7.272c-0.744,0.936-1.504,1.872-2.224,2.816c-2.496,3.264-4.904,6.544-7.144,9.848
			c-0.2,0.296-0.384,0.6-0.584,0.904c-0.256,0.376-0.48,0.752-0.728,1.136v-73.448C130.28,113.282,123.112,106.114,114.28,106.114z
			 M297.112,297.778c-51.968,51.24-117.84,55.728-153.456,53.672c13.04-16.704,33.184-41.296,57.816-67.52
			c9.344-3.832,41.32-15.928,80.488-19.4c8.8-0.784,15.304-8.544,14.52-17.352c-0.776-8.8-8.36-15.296-17.352-14.52
			c-10.4,0.92-20.272,2.384-29.496,4.12c16.8-14.968,34.552-29.216,52.784-41.48c7.336-4.936,9.28-14.872,4.344-22.208
			c-4.92-7.328-14.888-9.28-22.2-4.336c-26.512,17.84-51.816,39.264-74.728,61.128c-0.104-3.416-0.288-6.928-0.656-10.608
			c-0.872-8.784-8.6-15.216-17.504-14.336c-8.8,0.88-15.208,8.712-14.336,17.504c2.408,24.168-3.12,40.672-5.176,45.824
			c-18.512,20.064-34.248,38.864-46.168,53.784c0-0.256-0.016-0.488-0.016-0.744c0-0.344,0.008-0.712,0.008-1.056
			c0-2.568,0.056-5.224,0.16-7.96c0.016-0.368,0.024-0.728,0.04-1.104c0.128-2.88,0.32-5.864,0.584-8.912
			c0.048-0.608,0.104-1.216,0.168-1.832c0.288-3.104,0.64-6.272,1.096-9.52c0.048-0.352,0.112-0.712,0.16-1.064
			c0.376-2.6,0.856-5.264,1.352-7.936c0.336-1.104,0.552-2.248,0.64-3.44c0.648-3.2,1.4-6.448,2.24-9.728
			c0.176-0.68,0.36-1.36,0.544-2.04c0.944-3.504,1.976-7.04,3.16-10.608c0.096-0.28,0.2-0.56,0.296-0.84
			c1.152-3.408,2.432-6.832,3.824-10.272c0.24-0.6,0.472-1.2,0.728-1.808c1.472-3.536,3.096-7.08,4.856-10.632
			c0.344-0.688,0.704-1.384,1.056-2.072c1.864-3.648,3.848-7.304,6.04-10.936c0.088-0.144,0.184-0.288,0.28-0.432
			c2.144-3.528,4.48-7.032,6.952-10.52c0.448-0.632,0.88-1.272,1.344-1.904c2.536-3.48,5.248-6.928,8.144-10.344
			c0.544-0.64,1.112-1.28,1.672-1.92c3.072-3.528,6.28-7.032,9.76-10.464c5.088-5.016,10.464-9.728,16.088-14.104
			c0.664-0.52,1.368-0.984,2.032-1.488c2.168-1.64,4.344-3.28,6.584-4.816c2.936-2.016,5.92-3.944,8.968-5.776l0.008-0.008
			c0,0,0.008,0,0.008-0.008c53.728-32.504,112.264-29.12,135.344-26.064C353.872,159.298,358.064,237.666,297.112,297.778z"/>
	</g>
</g>
<g>
</g>
<g>
</g>
<g>
</g>
<g>
</g>
<g>
</g>
<g>
</g>
<g>
</g>
<g>
</g>
<g>
</g>
<g>
</g>
<g>
</g>
<g>
</g>
<g>
</g>
<g>
</g>
<g>
</g>
</svg>
